<svg width="15" height="15" viewBox="0 0 15 15" fill="none" xmlns="http://www.w3.org/2000/svg">
<path d="M12.0781 5.91761C12.0781 5.91761 11.7387 10.127 11.5418 11.9001C11.4481 12.747 10.9249 13.2432 10.0681 13.2589C8.43744 13.2882 6.80494 13.2901 5.17494 13.2557C4.35056 13.2389 3.83619 12.7364 3.74431 11.9045C3.54619 10.1157 3.20869 5.91761 3.20869 5.91761M12.9426 3.89982H2.34387M10.9004 3.8998C10.4097 3.8998 9.98725 3.55293 9.891 3.0723L9.73912 2.3123C9.64537 1.96168 9.32787 1.71918 8.966 1.71918H6.32037C5.9585 1.71918 5.641 1.96168 5.54725 2.3123L5.39537 3.0723C5.29912 3.55293 4.87662 3.8998 4.386 3.8998" stroke="#8F959E" stroke-width="1.3" stroke-linecap="round" stroke-linejoin="round"/>
</svg>
